<svg xmlns="http://www.w3.org/2000/svg" xmlns:xlink="http://www.w3.org/1999/xlink" width="800" zoomAndPan="magnify" viewBox="0 0 600 599.999999" height="800" preserveAspectRatio="xMidYMid meet" version="1.0"><defs><clipPath id="8e0ebe30e4"><path d="M 261 336 L 534.898438 336 L 534.898438 371 L 261 371 Z M 261 336 " clip-rule="nonzero"/></clipPath></defs><g clip-path="url(#8e0ebe30e4)"><path fill="#004aad" d="M 261.722656 336.242188 L 534.367188 336.242188 L 534.367188 370.425781 L 261.722656 370.425781 Z M 261.722656 336.242188 " fill-opacity="1" fill-rule="nonzero"/></g><path fill="#004aad" d="M 520.960938 287.03125 C 520.960938 288.289062 520.902344 289.542969 520.777344 290.796875 C 520.652344 292.046875 520.46875 293.289062 520.222656 294.523438 C 519.980469 295.757812 519.671875 296.976562 519.308594 298.183594 C 518.941406 299.386719 518.519531 300.570312 518.039062 301.730469 C 517.554688 302.894531 517.019531 304.03125 516.425781 305.140625 C 515.832031 306.25 515.1875 307.328125 514.488281 308.375 C 513.789062 309.417969 513.039062 310.429688 512.242188 311.402344 C 511.445312 312.375 510.597656 313.304688 509.710938 314.195312 C 508.820312 315.085938 507.890625 315.929688 506.917969 316.726562 C 505.945312 317.527344 504.933594 318.273438 503.886719 318.972656 C 502.84375 319.671875 501.765625 320.320312 500.652344 320.910156 C 499.542969 321.503906 498.410156 322.042969 497.246094 322.523438 C 496.082031 323.003906 494.898438 323.429688 493.695312 323.792969 C 492.492188 324.160156 491.273438 324.464844 490.039062 324.710938 C 488.804688 324.957031 487.5625 325.140625 486.308594 325.261719 C 485.058594 325.386719 483.800781 325.449219 482.542969 325.449219 C 481.285156 325.449219 480.03125 325.386719 478.777344 325.261719 C 477.527344 325.140625 476.28125 324.957031 475.046875 324.710938 C 473.816406 324.464844 472.59375 324.160156 471.390625 323.792969 C 470.1875 323.429688 469.003906 323.003906 467.839844 322.523438 C 466.679688 322.042969 465.542969 321.503906 464.433594 320.910156 C 463.324219 320.320312 462.246094 319.671875 461.199219 318.972656 C 460.152344 318.273438 459.144531 317.527344 458.171875 316.726562 C 457.199219 315.929688 456.269531 315.085938 455.378906 314.195312 C 454.488281 313.304688 453.644531 312.375 452.847656 311.402344 C 452.046875 310.429688 451.300781 309.417969 450.601562 308.375 C 449.902344 307.328125 449.253906 306.25 448.660156 305.140625 C 448.070312 304.03125 447.53125 302.894531 447.050781 301.730469 C 446.566406 300.570312 446.144531 299.386719 445.78125 298.183594 C 445.414062 296.976562 445.109375 295.757812 444.863281 294.523438 C 444.617188 293.289062 444.433594 292.046875 444.308594 290.796875 C 444.1875 289.542969 444.125 288.289062 444.125 287.03125 C 444.125 285.769531 444.1875 284.515625 444.308594 283.265625 C 444.433594 282.011719 444.617188 280.769531 444.863281 279.535156 C 445.109375 278.300781 445.414062 277.082031 445.78125 275.878906 C 446.144531 274.671875 446.566406 273.488281 447.050781 272.328125 C 447.53125 271.164062 448.070312 270.027344 448.660156 268.917969 C 449.253906 267.808594 449.902344 266.730469 450.601562 265.683594 C 451.300781 264.640625 452.046875 263.628906 452.847656 262.65625 C 453.644531 261.683594 454.488281 260.753906 455.378906 259.863281 C 456.269531 258.972656 457.199219 258.128906 458.171875 257.332031 C 459.144531 256.53125 460.152344 255.785156 461.199219 255.085938 C 462.246094 254.386719 463.324219 253.742188 464.433594 253.148438 C 465.542969 252.554688 466.679688 252.015625 467.839844 251.535156 C 469.003906 251.054688 470.1875 250.628906 471.390625 250.265625 C 472.59375 249.898438 473.816406 249.59375 475.046875 249.347656 C 476.28125 249.105469 477.527344 248.917969 478.777344 248.796875 C 480.03125 248.671875 481.285156 248.609375 482.542969 248.609375 C 483.800781 248.609375 485.058594 248.671875 486.308594 248.796875 C 487.5625 248.917969 488.804688 249.105469 490.039062 249.347656 C 491.273438 249.59375 492.492188 249.898438 493.695312 250.265625 C 494.898438 250.628906 496.082031 251.054688 497.246094 251.535156 C 498.410156 252.015625 499.542969 252.554688 500.652344 253.148438 C 501.765625 253.742188 502.84375 254.386719 503.886719 255.085938 C 504.933594 255.785156 505.945312 256.535156 506.917969 257.332031 C 507.890625 258.128906 508.820312 258.972656 509.710938 259.863281 C 510.597656 260.753906 511.445312 261.683594 512.242188 262.65625 C 513.039062 263.628906 513.789062 264.640625 514.488281 265.683594 C 515.1875 266.730469 515.832031 267.808594 516.425781 268.917969 C 517.019531 270.027344 517.554688 271.164062 518.039062 272.328125 C 518.519531 273.488281 518.941406 274.671875 519.308594 275.878906 C 519.671875 277.082031 519.980469 278.300781 520.222656 279.535156 C 520.46875 280.769531 520.652344 282.011719 520.777344 283.265625 C 520.902344 284.515625 520.960938 285.769531 520.960938 287.03125 Z M 520.960938 287.03125 " fill-opacity="1" fill-rule="nonzero"/><path fill="#004aad" d="M 429.847656 274.203125 L 429.847656 229.113281 C 429.847656 221.449219 423.640625 215.300781 416.035156 215.300781 C 408.375 215.300781 402.226562 221.507812 402.226562 229.113281 L 402.226562 266.019531 L 336.296875 266.019531 L 345.175781 231.085938 C 346.222656 226.90625 345.292969 222.4375 342.625 219.011719 C 339.953125 215.589844 335.890625 213.617188 331.539062 213.617188 L 284.414062 213.617188 C 276.640625 213.617188 270.371094 219.882812 270.371094 227.660156 C 270.371094 235.4375 276.640625 241.703125 284.414062 241.703125 L 313.492188 241.703125 L 304.613281 276.757812 C 304.496094 277.28125 304.378906 277.800781 304.320312 278.324219 C 300.78125 283.199219 298.632812 289.234375 298.632812 295.792969 C 298.632812 312.214844 311.921875 325.507812 328.347656 325.507812 L 409.363281 325.507812 C 425.785156 325.507812 439.078125 312.214844 439.078125 295.792969 C 439.078125 287.261719 435.535156 279.660156 429.847656 274.203125 Z M 429.847656 274.203125 " fill-opacity="1" fill-rule="nonzero"/><path fill="#004aad" d="M 255.488281 95.472656 C 256.207031 96.632812 256.867188 97.828125 257.46875 99.058594 C 258.070312 100.285156 258.609375 101.539062 259.085938 102.820312 C 259.5625 104.097656 259.976562 105.398438 260.328125 106.71875 C 260.679688 108.042969 260.960938 109.375 261.179688 110.726562 C 261.398438 112.074219 261.550781 113.429688 261.636719 114.792969 C 261.722656 116.160156 261.742188 117.523438 261.691406 118.890625 C 261.644531 120.253906 261.53125 121.613281 261.347656 122.96875 C 261.164062 124.324219 260.917969 125.667969 260.601562 126.996094 C 260.289062 128.324219 259.910156 129.636719 259.46875 130.929688 C 259.023438 132.222656 258.519531 133.492188 257.953125 134.734375 C 257.382812 135.976562 256.757812 137.191406 256.070312 138.371094 C 255.382812 139.554688 254.640625 140.699219 253.84375 141.808594 C 253.042969 142.914062 252.191406 143.980469 251.289062 145.007812 C 250.382812 146.03125 249.429688 147.011719 248.429688 147.941406 C 247.429688 148.871094 246.386719 149.753906 245.300781 150.582031 C 244.214844 151.410156 243.089844 152.183594 241.929688 152.902344 C 240.765625 153.621094 239.570312 154.28125 238.34375 154.882812 C 237.117188 155.484375 235.863281 156.023438 234.582031 156.5 C 233.300781 156.976562 232 157.390625 230.679688 157.742188 C 229.359375 158.089844 228.023438 158.375 226.675781 158.59375 C 225.324219 158.8125 223.96875 158.964844 222.605469 159.050781 C 221.242188 159.136719 219.875 159.15625 218.511719 159.105469 C 217.144531 159.058594 215.785156 158.941406 214.429688 158.761719 C 213.078125 158.578125 211.734375 158.332031 210.402344 158.015625 C 209.074219 157.703125 207.761719 157.324219 206.46875 156.882812 C 205.175781 156.4375 203.910156 155.933594 202.664062 155.367188 C 201.421875 154.796875 200.210938 154.171875 199.027344 153.484375 C 197.847656 152.796875 196.703125 152.054688 195.59375 151.253906 C 194.484375 150.457031 193.417969 149.605469 192.394531 148.699219 C 191.367188 147.796875 190.390625 146.84375 189.457031 145.84375 C 188.527344 144.84375 187.648438 143.800781 186.816406 142.714844 C 185.988281 141.628906 185.214844 140.503906 184.496094 139.339844 C 183.777344 138.179688 183.121094 136.984375 182.519531 135.757812 C 181.917969 134.53125 181.378906 133.277344 180.898438 131.996094 C 180.421875 130.714844 180.007812 129.414062 179.660156 128.09375 C 179.308594 126.773438 179.023438 125.4375 178.804688 124.089844 C 178.585938 122.738281 178.433594 121.382812 178.347656 120.019531 C 178.261719 118.65625 178.246094 117.289062 178.292969 115.925781 C 178.339844 114.558594 178.457031 113.199219 178.640625 111.84375 C 178.820312 110.488281 179.070312 109.148438 179.382812 107.816406 C 179.699219 106.488281 180.074219 105.175781 180.519531 103.882812 C 180.960938 102.589844 181.46875 101.324219 182.035156 100.078125 C 182.601562 98.835938 183.230469 97.625 183.914062 96.441406 C 184.601562 95.261719 185.34375 94.117188 186.144531 93.007812 C 186.945312 91.898438 187.796875 90.832031 188.699219 89.804688 C 189.601562 88.78125 190.554688 87.804688 191.554688 86.871094 C 192.554688 85.941406 193.597656 85.0625 194.683594 84.230469 C 195.769531 83.402344 196.894531 82.628906 198.058594 81.910156 C 199.222656 81.191406 200.414062 80.53125 201.644531 79.933594 C 202.871094 79.332031 204.125 78.792969 205.40625 78.3125 C 206.683594 77.835938 207.984375 77.421875 209.308594 77.070312 C 210.628906 76.722656 211.964844 76.4375 213.3125 76.21875 C 214.660156 76 216.015625 75.847656 217.382812 75.761719 C 218.746094 75.675781 220.109375 75.65625 221.476562 75.707031 C 222.839844 75.753906 224.203125 75.871094 225.554688 76.054688 C 226.910156 76.234375 228.253906 76.484375 229.582031 76.796875 C 230.914062 77.109375 232.222656 77.488281 233.515625 77.933594 C 234.808594 78.375 236.078125 78.878906 237.320312 79.449219 C 238.5625 80.015625 239.777344 80.644531 240.957031 81.328125 C 242.140625 82.015625 243.285156 82.757812 244.394531 83.558594 C 245.5 84.355469 246.570312 85.207031 247.59375 86.113281 C 248.617188 87.015625 249.597656 87.96875 250.527344 88.96875 C 251.460938 89.96875 252.339844 91.011719 253.167969 92.097656 C 253.996094 93.183594 254.769531 94.308594 255.488281 95.472656 Z M 255.488281 95.472656 " fill-opacity="1" fill-rule="nonzero"/><path fill="#004aad" d="M 257.777344 251.976562 L 215.644531 251.976562 L 215.644531 213.210938 C 221.621094 201.253906 220.578125 187.09375 213.441406 176.242188 C 210.304688 169.570312 205.199219 163.707031 198.351562 159.585938 C 194.171875 157.089844 189.703125 155.40625 185.175781 154.59375 C 169.566406 148.617188 151.34375 153.726562 141.363281 168.058594 L 74.214844 264.339844 C 66.554688 275.304688 65.625 288.886719 70.558594 300.320312 C 70.039062 302.929688 69.746094 305.542969 69.746094 308.210938 L 69.746094 501.058594 C 69.746094 522.53125 87.15625 540 108.6875 540 C 130.21875 540 147.628906 522.53125 147.628906 501.058594 L 147.628906 319.0625 L 176.703125 270.894531 L 176.703125 271.476562 C 176.703125 282.210938 185.410156 290.917969 196.144531 290.917969 L 257.777344 290.917969 C 268.515625 290.917969 277.21875 282.210938 277.21875 271.476562 C 277.21875 260.738281 268.515625 251.976562 257.777344 251.976562 Z M 257.777344 251.976562 " fill-opacity="1" fill-rule="nonzero"/></svg>