<svg xmlns="http://www.w3.org/2000/svg" xmlns:xlink="http://www.w3.org/1999/xlink" width="800" zoomAndPan="magnify" viewBox="0 0 600 599.999999" height="800" preserveAspectRatio="xMidYMid meet" version="1.0"><path fill="#004aad" d="M 334.796875 268 C 334.804688 261.914062 334.398438 255.859375 333.589844 249.828125 C 332.777344 243.796875 331.5625 237.847656 329.949219 231.984375 C 328.332031 226.117188 326.328125 220.386719 323.941406 214.789062 C 321.550781 209.195312 318.796875 203.785156 315.675781 198.558594 C 311.726562 199.636719 307.902344 201.042969 304.195312 202.777344 C 300.488281 204.511719 296.957031 206.554688 293.605469 208.898438 C 290.25 211.242188 287.121094 213.859375 284.21875 216.742188 C 281.316406 219.628906 278.683594 222.742188 276.316406 226.078125 C 279.757812 232.53125 282.367188 239.300781 284.140625 246.394531 C 285.914062 253.488281 286.796875 260.6875 286.796875 268 C 286.796875 269.441406 286.761719 270.878906 286.691406 272.316406 C 286.621094 273.757812 286.515625 275.191406 286.371094 276.625 C 286.230469 278.058594 286.054688 279.488281 285.84375 280.914062 C 285.632812 282.335938 285.386719 283.753906 285.105469 285.167969 C 284.824219 286.582031 284.507812 287.984375 284.160156 289.382812 C 283.808594 290.777344 283.425781 292.167969 283.007812 293.546875 C 282.589844 294.921875 282.136719 296.289062 281.652344 297.644531 C 281.167969 299.003906 280.648438 300.34375 280.097656 301.675781 C 279.546875 303.007812 278.964844 304.324219 278.347656 305.625 C 277.730469 306.925781 277.085938 308.210938 276.40625 309.484375 C 275.726562 310.753906 275.015625 312.003906 274.277344 313.242188 C 273.535156 314.476562 272.765625 315.691406 271.964844 316.890625 C 271.164062 318.085938 270.335938 319.265625 269.480469 320.421875 C 268.621094 321.578125 267.734375 322.714844 266.820312 323.828125 C 265.90625 324.941406 264.96875 326.03125 264 327.097656 C 263.03125 328.164062 262.039062 329.207031 261.023438 330.226562 C 260.003906 331.242188 258.960938 332.238281 257.894531 333.203125 C 256.828125 334.171875 255.738281 335.109375 254.625 336.023438 C 253.511719 336.9375 252.375 337.824219 251.21875 338.683594 C 250.0625 339.539062 248.882812 340.371094 247.6875 341.167969 C 246.488281 341.96875 245.273438 342.738281 244.039062 343.480469 C 242.800781 344.21875 241.550781 344.929688 240.28125 345.609375 C 239.007812 346.289062 237.722656 346.933594 236.421875 347.550781 C 235.121094 348.167969 233.804688 348.75 232.472656 349.300781 C 231.140625 349.851562 229.796875 350.371094 228.441406 350.855469 C 227.085938 351.339844 225.71875 351.792969 224.339844 352.210938 C 222.964844 352.628906 221.574219 353.011719 220.179688 353.363281 C 218.78125 353.710938 217.375 354.027344 215.964844 354.308594 C 214.550781 354.589844 213.132812 354.835938 211.707031 355.046875 C 210.285156 355.257812 208.855469 355.433594 207.421875 355.578125 C 205.988281 355.71875 204.554688 355.824219 203.113281 355.894531 C 201.675781 355.964844 200.238281 356 198.796875 356 C 197.355469 356 195.917969 355.964844 194.480469 355.894531 C 193.039062 355.824219 191.605469 355.71875 190.171875 355.578125 C 188.738281 355.433594 187.308594 355.257812 185.882812 355.046875 C 184.460938 354.835938 183.042969 354.589844 181.628906 354.308594 C 180.214844 354.027344 178.8125 353.710938 177.414062 353.363281 C 176.015625 353.011719 174.628906 352.628906 173.25 352.210938 C 171.875 351.792969 170.507812 351.339844 169.148438 350.855469 C 167.792969 350.371094 166.449219 349.851562 165.121094 349.300781 C 163.789062 348.75 162.472656 348.167969 161.171875 347.550781 C 159.871094 346.933594 158.582031 346.289062 157.3125 345.609375 C 156.042969 344.929688 154.789062 344.21875 153.554688 343.480469 C 152.320312 342.738281 151.105469 341.96875 149.90625 341.167969 C 148.707031 340.371094 147.53125 339.539062 146.375 338.683594 C 145.21875 337.824219 144.082031 336.9375 142.96875 336.023438 C 141.855469 335.109375 140.765625 334.171875 139.699219 333.203125 C 138.632812 332.238281 137.589844 331.242188 136.570312 330.226562 C 135.554688 329.207031 134.558594 328.164062 133.59375 327.097656 C 132.625 326.03125 131.683594 324.941406 130.773438 323.828125 C 129.859375 322.714844 128.972656 321.578125 128.113281 320.421875 C 127.257812 319.265625 126.425781 318.085938 125.628906 316.890625 C 124.828125 315.691406 124.058594 314.476562 123.316406 313.242188 C 122.574219 312.003906 121.867188 310.753906 121.1875 309.484375 C 120.507812 308.210938 119.859375 306.925781 119.246094 305.625 C 118.628906 304.324219 118.046875 303.007812 117.496094 301.675781 C 116.945312 300.34375 116.425781 299.003906 115.941406 297.644531 C 115.457031 296.289062 115.003906 294.921875 114.585938 293.546875 C 114.167969 292.167969 113.785156 290.777344 113.433594 289.382812 C 113.082031 287.984375 112.769531 286.582031 112.488281 285.167969 C 112.207031 283.753906 111.960938 282.335938 111.75 280.914062 C 111.539062 279.488281 111.363281 278.058594 111.21875 276.625 C 111.078125 275.191406 110.972656 273.757812 110.902344 272.316406 C 110.832031 270.878906 110.796875 269.441406 110.796875 268 C 110.796875 266.558594 110.832031 265.121094 110.902344 263.683594 C 110.972656 262.242188 111.078125 260.808594 111.21875 259.375 C 111.363281 257.941406 111.539062 256.511719 111.75 255.085938 C 111.960938 253.664062 112.207031 252.246094 112.488281 250.832031 C 112.769531 249.417969 113.082031 248.015625 113.433594 246.617188 C 113.785156 245.222656 114.167969 243.832031 114.585938 242.453125 C 115.003906 241.078125 115.457031 239.710938 115.941406 238.355469 C 116.425781 236.996094 116.945312 235.65625 117.496094 234.324219 C 118.046875 232.992188 118.628906 231.675781 119.246094 230.375 C 119.859375 229.074219 120.507812 227.789062 121.1875 226.515625 C 121.867188 225.246094 122.574219 223.996094 123.316406 222.757812 C 124.058594 221.523438 124.828125 220.308594 125.628906 219.109375 C 126.425781 217.914062 127.257812 216.734375 128.113281 215.578125 C 128.972656 214.421875 129.859375 213.285156 130.773438 212.171875 C 131.683594 211.058594 132.625 209.96875 133.59375 208.902344 C 134.558594 207.835938 135.554688 206.792969 136.570312 205.773438 C 137.589844 204.757812 138.632812 203.761719 139.699219 202.796875 C 140.765625 201.828125 141.855469 200.890625 142.96875 199.976562 C 144.082031 199.0625 145.21875 198.175781 146.375 197.316406 C 147.53125 196.460938 148.707031 195.628906 149.90625 194.832031 C 151.105469 194.03125 152.320312 193.261719 153.554688 192.519531 C 154.789062 191.78125 156.042969 191.070312 157.3125 190.390625 C 158.582031 189.710938 159.871094 189.066406 161.171875 188.449219 C 162.472656 187.832031 163.789062 187.25 165.121094 186.699219 C 166.449219 186.148438 167.792969 185.628906 169.148438 185.144531 C 170.507812 184.660156 171.875 184.207031 173.25 183.789062 C 174.628906 183.371094 176.015625 182.988281 177.414062 182.636719 C 178.8125 182.289062 180.214844 181.972656 181.628906 181.691406 C 183.042969 181.410156 184.460938 181.164062 185.882812 180.953125 C 187.308594 180.742188 188.738281 180.566406 190.171875 180.421875 C 191.605469 180.28125 193.039062 180.175781 194.480469 180.105469 C 195.917969 180.035156 197.355469 180 198.796875 180 C 202.652344 180 206.492188 180.238281 210.316406 180.71875 C 215.652344 173.105469 221.644531 166.042969 228.285156 159.53125 C 234.929688 153.023438 242.113281 147.179688 249.835938 142 C 241.742188 138.671875 233.398438 136.164062 224.808594 134.484375 C 216.21875 132.800781 207.550781 131.972656 198.796875 132 C 196.695312 132 194.597656 132.046875 192.5 132.144531 C 190.402344 132.238281 188.308594 132.382812 186.21875 132.578125 C 184.128906 132.769531 182.042969 133.011719 179.964844 133.300781 C 177.882812 133.59375 175.8125 133.929688 173.746094 134.316406 C 171.683594 134.703125 169.628906 135.136719 167.585938 135.617188 C 165.542969 136.097656 163.511719 136.625 161.492188 137.203125 C 159.472656 137.777344 157.46875 138.398438 155.476562 139.066406 C 153.484375 139.734375 151.511719 140.449219 149.554688 141.210938 C 147.597656 141.96875 145.660156 142.773438 143.738281 143.621094 C 141.816406 144.472656 139.917969 145.367188 138.039062 146.304688 C 136.160156 147.242188 134.304688 148.222656 132.472656 149.246094 C 130.636719 150.269531 128.828125 151.332031 127.046875 152.441406 C 125.261719 153.546875 123.503906 154.695312 121.773438 155.886719 C 120.042969 157.074219 118.339844 158.300781 116.667969 159.570312 C 114.992188 160.835938 113.347656 162.144531 111.734375 163.488281 C 110.121094 164.832031 108.542969 166.210938 106.992188 167.628906 C 105.441406 169.046875 103.925781 170.496094 102.445312 171.984375 C 100.960938 173.472656 99.515625 174.992188 98.105469 176.546875 C 96.691406 178.101562 95.316406 179.6875 93.980469 181.304688 C 92.640625 182.921875 91.339844 184.570312 90.078125 186.25 C 88.816406 187.929688 87.59375 189.636719 86.414062 191.371094 C 85.230469 193.105469 84.085938 194.867188 82.988281 196.652344 C 81.886719 198.441406 80.828125 200.253906 79.808594 202.089844 C 78.792969 203.929688 77.820312 205.789062 76.886719 207.667969 C 75.957031 209.550781 75.070312 211.453125 74.226562 213.378906 C 73.382812 215.300781 72.585938 217.242188 71.832031 219.203125 C 71.082031 221.160156 70.375 223.136719 69.710938 225.132812 C 69.050781 227.125 68.4375 229.132812 67.867188 231.152344 C 67.300781 233.171875 66.777344 235.207031 66.304688 237.253906 C 65.832031 239.296875 65.40625 241.355469 65.027344 243.417969 C 64.648438 245.484375 64.316406 247.558594 64.035156 249.636719 C 63.75 251.71875 63.515625 253.804688 63.332031 255.894531 C 63.144531 257.988281 63.007812 260.082031 62.917969 262.179688 C 62.828125 264.277344 62.789062 266.375 62.796875 268.476562 C 62.804688 270.574219 62.863281 272.671875 62.96875 274.769531 C 63.074219 276.867188 63.226562 278.960938 63.429688 281.050781 C 63.632812 283.140625 63.882812 285.226562 64.179688 287.304688 C 64.480469 289.382812 64.828125 291.453125 65.222656 293.515625 C 65.617188 295.578125 66.058594 297.628906 66.550781 299.667969 C 67.039062 301.710938 67.578125 303.742188 68.160156 305.757812 C 68.746094 307.773438 69.375 309.777344 70.050781 311.765625 C 70.730469 313.75 71.453125 315.722656 72.21875 317.675781 C 72.988281 319.632812 73.800781 321.566406 74.660156 323.484375 C 75.515625 325.398438 76.417969 327.292969 77.363281 329.167969 C 78.308594 331.042969 79.296875 332.894531 80.328125 334.726562 C 81.359375 336.554688 82.433594 338.359375 83.550781 340.136719 C 84.664062 341.914062 85.820312 343.667969 87.015625 345.394531 C 88.210938 347.121094 89.449219 348.816406 90.722656 350.484375 C 92 352.152344 93.3125 353.789062 94.660156 355.398438 C 96.011719 357.007812 97.398438 358.582031 98.824219 360.125 C 100.246094 361.667969 101.707031 363.175781 103.199219 364.652344 C 104.695312 366.128906 106.222656 367.570312 107.78125 368.972656 C 109.339844 370.378906 110.933594 371.746094 112.558594 373.078125 C 114.179688 374.410156 115.835938 375.703125 117.519531 376.957031 C 119.203125 378.210938 120.914062 379.425781 122.65625 380.601562 C 124.394531 381.773438 126.160156 382.910156 127.953125 384.003906 C 129.746094 385.097656 131.5625 386.148438 133.40625 387.15625 C 135.246094 388.164062 137.109375 389.132812 138.996094 390.054688 C 140.882812 390.976562 142.789062 391.855469 144.714844 392.691406 C 146.640625 393.523438 148.585938 394.3125 150.550781 395.058594 C 152.511719 395.800781 154.492188 396.5 156.488281 397.152344 C 158.484375 397.804688 160.496094 398.410156 162.519531 398.972656 C 164.542969 399.53125 166.578125 400.042969 168.625 400.507812 C 170.671875 400.972656 172.730469 401.390625 174.796875 401.761719 L 174.796875 452 L 158.796875 452 C 158.273438 452 157.753906 452.054688 157.238281 452.15625 C 156.722656 452.261719 156.222656 452.414062 155.738281 452.617188 C 155.253906 452.816406 154.792969 453.0625 154.359375 453.355469 C 153.921875 453.648438 153.519531 453.980469 153.148438 454.351562 C 152.777344 454.722656 152.445312 455.125 152.152344 455.5625 C 151.859375 455.996094 151.613281 456.457031 151.410156 456.941406 C 151.210938 457.425781 151.058594 457.925781 150.953125 458.441406 C 150.851562 458.957031 150.796875 459.476562 150.796875 460 L 150.796875 492 C 150.796875 492.523438 150.851562 493.042969 150.953125 493.558594 C 151.058594 494.074219 151.210938 494.574219 151.410156 495.058594 C 151.613281 495.542969 151.859375 496.003906 152.152344 496.4375 C 152.445312 496.875 152.777344 497.277344 153.148438 497.648438 C 153.519531 498.019531 153.921875 498.351562 154.359375 498.644531 C 154.792969 498.9375 155.253906 499.183594 155.738281 499.382812 C 156.222656 499.585938 156.722656 499.738281 157.238281 499.84375 C 157.753906 499.945312 158.273438 500 158.796875 500 L 174.796875 500 L 174.796875 532 C 174.796875 532.523438 174.851562 533.042969 174.953125 533.558594 C 175.058594 534.074219 175.210938 534.574219 175.410156 535.058594 C 175.613281 535.542969 175.859375 536.003906 176.152344 536.4375 C 176.445312 536.875 176.777344 537.277344 177.148438 537.648438 C 177.519531 538.019531 177.921875 538.351562 178.359375 538.644531 C 178.792969 538.9375 179.253906 539.183594 179.738281 539.382812 C 180.222656 539.585938 180.722656 539.738281 181.238281 539.84375 C 181.753906 539.945312 182.273438 540 182.796875 540 L 214.796875 540 C 215.320312 540 215.839844 539.945312 216.355469 539.84375 C 216.871094 539.738281 217.371094 539.585938 217.855469 539.382812 C 218.339844 539.183594 218.800781 538.9375 219.234375 538.644531 C 219.671875 538.351562 220.074219 538.019531 220.445312 537.648438 C 220.816406 537.277344 221.148438 536.875 221.441406 536.4375 C 221.734375 536.003906 221.980469 535.542969 222.179688 535.058594 C 222.382812 534.574219 222.535156 534.074219 222.640625 533.558594 C 222.742188 533.042969 222.796875 532.523438 222.796875 532 L 222.796875 500 L 238.796875 500 C 239.320312 500 239.839844 499.945312 240.355469 499.84375 C 240.871094 499.738281 241.371094 499.585938 241.855469 499.382812 C 242.339844 499.183594 242.800781 498.9375 243.234375 498.644531 C 243.671875 498.351562 244.074219 498.019531 244.445312 497.648438 C 244.816406 497.277344 245.148438 496.875 245.441406 496.4375 C 245.734375 496.003906 245.980469 495.542969 246.179688 495.058594 C 246.382812 494.574219 246.535156 494.074219 246.640625 493.558594 C 246.742188 493.042969 246.796875 492.523438 246.796875 492 L 246.796875 460 C 246.796875 459.476562 246.742188 458.957031 246.640625 458.441406 C 246.535156 457.925781 246.382812 457.425781 246.179688 456.941406 C 245.980469 456.457031 245.734375 455.996094 245.441406 455.5625 C 245.148438 455.125 244.816406 454.722656 244.445312 454.351562 C 244.074219 453.980469 243.671875 453.648438 243.234375 453.355469 C 242.800781 453.0625 242.339844 452.816406 241.855469 452.617188 C 241.371094 452.414062 240.871094 452.261719 240.355469 452.15625 C 239.839844 452.054688 239.320312 452 238.796875 452 L 222.796875 452 L 222.796875 401.761719 C 224.738281 401.410156 226.671875 401.019531 228.597656 400.589844 C 230.523438 400.15625 232.4375 399.683594 234.34375 399.164062 C 236.246094 398.648438 238.140625 398.09375 240.019531 397.496094 C 241.898438 396.898438 243.765625 396.257812 245.617188 395.578125 C 247.46875 394.898438 249.308594 394.179688 251.128906 393.417969 C 252.949219 392.660156 254.753906 391.863281 256.539062 391.023438 C 258.328125 390.1875 260.09375 389.308594 261.84375 388.394531 C 263.589844 387.480469 265.316406 386.527344 267.023438 385.539062 C 268.730469 384.546875 270.414062 383.519531 272.078125 382.457031 C 273.738281 381.394531 275.378906 380.296875 276.992188 379.160156 C 278.605469 378.027344 280.195312 376.855469 281.757812 375.652344 C 283.324219 374.449219 284.859375 373.210938 286.367188 371.941406 C 287.878906 370.671875 289.359375 369.367188 290.8125 368.03125 C 292.265625 366.699219 293.6875 365.332031 295.082031 363.933594 C 296.476562 362.539062 297.835938 361.109375 299.167969 359.65625 C 300.5 358.199219 301.800781 356.714844 303.066406 355.203125 C 304.332031 353.6875 305.566406 352.148438 306.765625 350.582031 C 307.964844 349.015625 309.128906 347.425781 310.261719 345.808594 C 311.390625 344.191406 312.484375 342.546875 313.546875 340.882812 C 314.605469 339.21875 315.625 337.53125 316.613281 335.824219 C 317.597656 334.113281 318.546875 332.382812 319.457031 330.632812 C 320.367188 328.882812 321.238281 327.113281 322.070312 325.324219 C 322.90625 323.535156 323.699219 321.730469 324.453125 319.90625 C 325.207031 318.082031 325.921875 316.246094 326.597656 314.390625 C 327.273438 312.535156 327.90625 310.667969 328.5 308.785156 C 329.09375 306.90625 329.644531 305.011719 330.15625 303.105469 C 330.667969 301.199219 331.136719 299.28125 331.5625 297.355469 C 331.992188 295.429688 332.378906 293.496094 332.722656 291.554688 C 333.0625 289.609375 333.363281 287.660156 333.625 285.703125 C 333.882812 283.746094 334.097656 281.789062 334.269531 279.820312 C 334.445312 277.855469 334.574219 275.886719 334.664062 273.917969 C 334.75 271.945312 334.792969 269.972656 334.796875 268 Z M 334.796875 268 " fill-opacity="1" fill-rule="nonzero"/><path fill="#004aad" d="M 534.796875 60 L 438.796875 60 C 438.273438 60 437.753906 60.054688 437.238281 60.15625 C 436.722656 60.261719 436.222656 60.414062 435.738281 60.617188 C 435.253906 60.816406 434.792969 61.0625 434.359375 61.355469 C 433.921875 61.648438 433.519531 61.980469 433.148438 62.351562 C 432.777344 62.722656 432.445312 63.125 432.152344 63.5625 C 431.859375 63.996094 431.613281 64.457031 431.410156 64.941406 C 431.210938 65.425781 431.058594 65.925781 430.953125 66.441406 C 430.851562 66.957031 430.796875 67.476562 430.796875 68 L 430.796875 100 C 430.796875 100.523438 430.851562 101.042969 430.953125 101.558594 C 431.058594 102.074219 431.210938 102.574219 431.410156 103.058594 C 431.613281 103.542969 431.859375 104.003906 432.152344 104.4375 C 432.445312 104.875 432.777344 105.277344 433.148438 105.648438 C 433.519531 106.019531 433.921875 106.351562 434.359375 106.644531 C 434.792969 106.9375 435.253906 107.183594 435.738281 107.382812 C 436.222656 107.585938 436.722656 107.738281 437.238281 107.84375 C 437.753906 107.945312 438.273438 108 438.796875 108 L 459.515625 108 L 411.597656 155.921875 C 405.988281 152.035156 400.121094 148.597656 393.992188 145.609375 C 387.859375 142.617188 381.539062 140.109375 375.027344 138.082031 C 368.515625 136.050781 361.886719 134.527344 355.144531 133.507812 C 348.398438 132.488281 341.617188 131.988281 334.796875 132 C 331.808594 132 328.828125 132.09375 325.847656 132.289062 C 322.867188 132.484375 319.898438 132.777344 316.9375 133.167969 C 313.976562 133.558594 311.035156 134.046875 308.105469 134.632812 C 305.175781 135.214844 302.269531 135.898438 299.386719 136.671875 C 296.503906 137.449219 293.648438 138.320312 290.824219 139.285156 C 287.996094 140.25 285.207031 141.304688 282.449219 142.453125 C 279.695312 143.601562 276.976562 144.839844 274.304688 146.167969 C 271.628906 147.492188 269 148.90625 266.417969 150.40625 C 263.835938 151.910156 261.308594 153.492188 258.832031 155.160156 C 256.351562 156.828125 253.933594 158.574219 251.570312 160.398438 C 249.207031 162.226562 246.910156 164.128906 244.671875 166.109375 C 242.4375 168.085938 240.265625 170.136719 238.164062 172.257812 C 236.0625 174.378906 234.035156 176.566406 232.078125 178.820312 C 230.117188 181.074219 228.238281 183.394531 226.433594 185.773438 C 224.628906 188.152344 222.902344 190.585938 221.257812 193.078125 C 219.617188 195.570312 218.054688 198.117188 216.578125 200.710938 C 215.101562 203.304688 213.710938 205.945312 212.410156 208.632812 C 211.105469 211.320312 209.894531 214.046875 208.773438 216.816406 C 207.648438 219.582031 206.617188 222.382812 205.679688 225.21875 C 204.742188 228.050781 203.898438 230.914062 203.148438 233.804688 C 202.398438 236.695312 201.746094 239.609375 201.1875 242.542969 C 200.628906 245.476562 200.167969 248.421875 199.804688 251.386719 C 199.441406 254.351562 199.175781 257.324219 199.011719 260.304688 C 198.84375 263.285156 198.773438 266.269531 198.804688 269.257812 C 198.832031 272.242188 198.960938 275.222656 199.183594 278.199219 C 199.410156 281.179688 199.734375 284.144531 200.15625 287.101562 C 200.578125 290.058594 201.09375 292.996094 201.710938 295.917969 C 202.324219 298.839844 203.035156 301.738281 203.839844 304.613281 C 204.648438 307.488281 205.546875 310.335938 206.539062 313.152344 C 207.535156 315.96875 208.621094 318.746094 209.796875 321.492188 C 210.972656 324.234375 212.238281 326.9375 213.59375 329.597656 C 214.949219 332.261719 216.390625 334.875 217.917969 337.441406 C 221.863281 336.359375 225.6875 334.949219 229.394531 333.214844 C 233.101562 331.480469 236.632812 329.445312 239.992188 327.105469 C 243.351562 324.769531 246.488281 322.164062 249.402344 319.292969 C 252.320312 316.421875 254.96875 313.324219 257.355469 310 C 256.59375 308.601562 255.871094 307.179688 255.1875 305.742188 C 254.503906 304.300781 253.859375 302.84375 253.253906 301.371094 C 252.648438 299.898438 252.085938 298.40625 251.5625 296.902344 C 251.035156 295.398438 250.554688 293.878906 250.113281 292.347656 C 249.671875 290.820312 249.269531 289.277344 248.914062 287.722656 C 248.554688 286.171875 248.238281 284.609375 247.964844 283.039062 C 247.691406 281.46875 247.460938 279.894531 247.273438 278.3125 C 247.085938 276.730469 246.941406 275.144531 246.839844 273.554688 C 246.738281 271.964844 246.679688 270.371094 246.664062 268.777344 C 246.648438 267.183594 246.675781 265.589844 246.746094 264 C 246.816406 262.40625 246.933594 260.820312 247.089844 259.234375 C 247.246094 257.648438 247.449219 256.066406 247.691406 254.492188 C 247.933594 252.917969 248.21875 251.351562 248.546875 249.792969 C 248.875 248.230469 249.246094 246.683594 249.660156 245.144531 C 250.070312 243.605469 250.523438 242.078125 251.019531 240.5625 C 251.515625 239.046875 252.050781 237.546875 252.628906 236.0625 C 253.203125 234.578125 253.820312 233.109375 254.476562 231.65625 C 255.132812 230.203125 255.828125 228.773438 256.5625 227.359375 C 257.296875 225.941406 258.070312 224.550781 258.878906 223.175781 C 259.6875 221.804688 260.535156 220.457031 261.417969 219.128906 C 262.300781 217.804688 263.21875 216.5 264.171875 215.226562 C 265.125 213.949219 266.113281 212.699219 267.136719 211.476562 C 268.15625 210.253906 269.210938 209.058594 270.296875 207.890625 C 271.382812 206.726562 272.5 205.589844 273.648438 204.484375 C 274.796875 203.378906 275.972656 202.308594 277.179688 201.265625 C 278.386719 200.226562 279.617188 199.21875 280.878906 198.242188 C 282.140625 197.269531 283.425781 196.328125 284.738281 195.425781 C 286.050781 194.519531 287.386719 193.652344 288.746094 192.820312 C 290.105469 191.988281 291.484375 191.195312 292.886719 190.4375 C 294.289062 189.679688 295.710938 188.960938 297.152344 188.28125 C 298.59375 187.601562 300.050781 186.960938 301.527344 186.359375 C 303.003906 185.757812 304.496094 185.199219 306 184.679688 C 307.507812 184.160156 309.027344 183.679688 310.558594 183.242188 C 312.089844 182.808594 313.632812 182.410156 315.1875 182.058594 C 316.742188 181.703125 318.304688 181.394531 319.875 181.125 C 321.445312 180.855469 323.023438 180.628906 324.605469 180.445312 C 326.1875 180.261719 327.773438 180.125 329.363281 180.027344 C 330.957031 179.929688 332.546875 179.875 334.140625 179.863281 C 335.734375 179.855469 337.328125 179.886719 338.917969 179.960938 C 340.511719 180.039062 342.097656 180.15625 343.683594 180.320312 C 345.269531 180.480469 346.847656 180.6875 348.421875 180.933594 C 349.996094 181.183594 351.5625 181.472656 353.121094 181.804688 C 354.679688 182.136719 356.226562 182.511719 357.765625 182.929688 C 359.304688 183.347656 360.828125 183.804688 362.34375 184.304688 C 363.855469 184.804688 365.355469 185.34375 366.835938 185.925781 C 368.320312 186.507812 369.789062 187.125 371.238281 187.789062 C 372.6875 188.449219 374.121094 189.148438 375.53125 189.886719 C 376.945312 190.625 378.335938 191.398438 379.703125 192.214844 C 381.074219 193.027344 382.421875 193.878906 383.746094 194.765625 C 385.070312 195.652344 386.367188 196.574219 387.640625 197.53125 C 388.914062 198.488281 390.164062 199.480469 391.382812 200.503906 C 392.601562 201.53125 393.792969 202.585938 394.957031 203.675781 C 396.117188 204.765625 397.25 205.886719 398.351562 207.039062 C 399.453125 208.191406 400.523438 209.371094 401.5625 210.578125 C 402.601562 211.789062 403.605469 213.023438 404.574219 214.289062 C 405.546875 215.550781 406.480469 216.839844 407.382812 218.15625 C 408.28125 219.472656 409.144531 220.808594 409.972656 222.171875 C 410.800781 223.53125 411.59375 224.914062 412.34375 226.320312 C 413.097656 227.722656 413.8125 229.148438 414.488281 230.589844 C 415.164062 232.035156 415.800781 233.492188 416.394531 234.972656 C 416.992188 236.449219 417.546875 237.941406 418.0625 239.449219 C 418.578125 240.957031 419.054688 242.476562 419.484375 244.011719 C 419.917969 245.546875 420.308594 247.089844 420.660156 248.644531 C 421.007812 250.199219 421.3125 251.761719 421.578125 253.332031 C 421.84375 254.90625 422.0625 256.484375 422.242188 258.066406 C 422.421875 259.648438 422.554688 261.238281 422.648438 262.828125 C 422.742188 264.417969 422.789062 266.011719 422.796875 267.605469 C 422.800781 269.195312 422.765625 270.789062 422.683594 272.382812 C 422.605469 273.972656 422.480469 275.558594 422.3125 277.144531 C 422.148438 278.730469 421.9375 280.308594 421.683594 281.882812 C 421.433594 283.457031 421.136719 285.019531 420.800781 286.578125 C 420.460938 288.136719 420.082031 289.683594 419.660156 291.21875 C 419.242188 292.757812 418.777344 294.28125 418.273438 295.792969 C 417.769531 297.304688 417.226562 298.800781 416.640625 300.28125 C 416.054688 301.765625 415.429688 303.230469 414.765625 304.675781 C 414.097656 306.125 413.394531 307.554688 412.652344 308.964844 C 411.910156 310.375 411.128906 311.761719 410.3125 313.132812 C 409.496094 314.5 408.640625 315.84375 407.75 317.164062 C 406.859375 318.484375 405.933594 319.78125 404.972656 321.050781 C 404.011719 322.324219 403.015625 323.566406 401.988281 324.785156 C 400.957031 326 399.898438 327.191406 398.804688 328.347656 C 397.710938 329.507812 396.585938 330.636719 395.433594 331.734375 C 394.277344 332.832031 393.09375 333.898438 391.882812 334.933594 C 390.671875 335.96875 389.429688 336.96875 388.164062 337.9375 C 386.898438 338.902344 385.605469 339.835938 384.289062 340.730469 C 382.972656 341.628906 381.632812 342.488281 380.265625 343.3125 C 378.902344 344.136719 377.519531 344.921875 376.113281 345.671875 C 374.707031 346.421875 373.277344 347.128906 371.835938 347.800781 C 370.390625 348.472656 368.925781 349.105469 367.449219 349.695312 C 365.96875 350.289062 364.472656 350.839844 362.964844 351.351562 C 361.453125 351.863281 359.933594 352.332031 358.398438 352.757812 C 356.863281 353.1875 355.316406 353.574219 353.761719 353.917969 C 352.207031 354.261719 350.640625 354.566406 349.070312 354.824219 C 347.496094 355.082031 345.917969 355.300781 344.335938 355.472656 C 342.75 355.648438 341.164062 355.777344 339.574219 355.867188 C 337.980469 355.953125 336.390625 356 334.796875 356 C 330.910156 356.015625 327.042969 355.75 323.195312 355.199219 C 317.855469 362.824219 311.855469 369.894531 305.199219 376.402344 C 298.542969 382.914062 291.339844 388.75 283.597656 393.921875 C 291.71875 397.253906 300.089844 399.769531 308.703125 401.464844 C 317.320312 403.160156 326.015625 404.007812 334.796875 404 C 337.019531 403.996094 339.246094 403.9375 341.46875 403.828125 C 343.6875 403.714844 345.90625 403.546875 348.121094 403.328125 C 350.335938 403.105469 352.542969 402.832031 354.742188 402.503906 C 356.941406 402.175781 359.132812 401.792969 361.316406 401.355469 C 363.496094 400.917969 365.667969 400.429688 367.824219 399.886719 C 369.980469 399.34375 372.125 398.75 374.253906 398.101562 C 376.382812 397.453125 378.492188 396.753906 380.585938 396.003906 C 382.683594 395.25 384.757812 394.449219 386.8125 393.597656 C 388.867188 392.742188 390.898438 391.839844 392.910156 390.886719 C 394.921875 389.933594 396.90625 388.933594 398.867188 387.882812 C 400.828125 386.835938 402.765625 385.738281 404.671875 384.59375 C 406.582031 383.449219 408.457031 382.257812 410.308594 381.019531 C 412.15625 379.785156 413.976562 378.503906 415.761719 377.175781 C 417.550781 375.851562 419.300781 374.480469 421.023438 373.070312 C 422.742188 371.660156 424.425781 370.207031 426.074219 368.710938 C 427.722656 367.21875 429.332031 365.683594 430.90625 364.109375 C 432.480469 362.535156 434.011719 360.925781 435.507812 359.277344 C 437.003906 357.628906 438.457031 355.945312 439.867188 354.226562 C 441.277344 352.507812 442.648438 350.753906 443.972656 348.964844 C 445.300781 347.179688 446.582031 345.363281 447.816406 343.511719 C 449.054688 341.664062 450.246094 339.785156 451.390625 337.875 C 452.535156 335.96875 453.632812 334.035156 454.679688 332.070312 C 455.730469 330.109375 456.730469 328.125 457.683594 326.113281 C 458.636719 324.101562 459.539062 322.070312 460.390625 320.015625 C 461.246094 317.960938 462.046875 315.886719 462.796875 313.792969 C 463.550781 311.695312 464.25 309.585938 464.898438 307.457031 C 465.542969 305.328125 466.140625 303.1875 466.683594 301.027344 C 467.226562 298.871094 467.714844 296.699219 468.152344 294.519531 C 468.585938 292.335938 468.96875 290.144531 469.300781 287.945312 C 469.628906 285.746094 469.902344 283.539062 470.125 281.324219 C 470.34375 279.109375 470.511719 276.890625 470.625 274.671875 C 470.734375 272.449219 470.792969 270.226562 470.796875 268 C 470.808594 261.179688 470.304688 254.398438 469.289062 247.652344 C 468.269531 240.910156 466.746094 234.28125 464.714844 227.769531 C 462.6875 221.257812 460.179688 214.9375 457.1875 208.804688 C 454.199219 202.675781 450.761719 196.808594 446.875 191.199219 L 494.796875 143.28125 L 494.796875 164 C 494.796875 164.523438 494.851562 165.042969 494.953125 165.558594 C 495.058594 166.074219 495.210938 166.574219 495.410156 167.058594 C 495.613281 167.542969 495.859375 168.003906 496.152344 168.4375 C 496.445312 168.875 496.777344 169.277344 497.148438 169.648438 C 497.519531 170.019531 497.921875 170.351562 498.359375 170.644531 C 498.792969 170.9375 499.253906 171.183594 499.738281 171.382812 C 500.222656 171.585938 500.722656 171.738281 501.238281 171.84375 C 501.753906 171.945312 502.273438 172 502.796875 172 L 534.796875 172 C 535.320312 172 535.839844 171.945312 536.355469 171.84375 C 536.871094 171.738281 537.371094 171.585938 537.855469 171.382812 C 538.339844 171.183594 538.800781 170.9375 539.234375 170.644531 C 539.671875 170.351562 540.074219 170.019531 540.445312 169.648438 C 540.816406 169.277344 541.148438 168.875 541.441406 168.4375 C 541.734375 168.003906 541.980469 167.542969 542.179688 167.058594 C 542.382812 166.574219 542.535156 166.074219 542.640625 165.558594 C 542.742188 165.042969 542.796875 164.523438 542.796875 164 L 542.796875 68 C 542.796875 67.476562 542.742188 66.957031 542.640625 66.441406 C 542.535156 65.925781 542.382812 65.425781 542.179688 64.941406 C 541.980469 64.457031 541.734375 63.996094 541.441406 63.5625 C 541.148438 63.125 540.816406 62.722656 540.445312 62.351562 C 540.074219 61.980469 539.671875 61.648438 539.234375 61.355469 C 538.800781 61.0625 538.339844 60.816406 537.855469 60.617188 C 537.371094 60.414062 536.871094 60.261719 536.355469 60.15625 C 535.839844 60.054688 535.320312 60 534.796875 60 Z M 534.796875 60 " fill-opacity="1" fill-rule="nonzero"/></svg>