<svg xmlns="http://www.w3.org/2000/svg" xmlns:xlink="http://www.w3.org/1999/xlink" width="800" zoomAndPan="magnify" viewBox="0 0 600 599.999999" height="800" preserveAspectRatio="xMidYMid meet" version="1.0"><defs><clipPath id="227ab9e695"><path d="M 111.300781 60 L 486 60 L 486 540 L 111.300781 540 Z M 111.300781 60 " clip-rule="nonzero"/></clipPath></defs><g clip-path="url(#227ab9e695)"><path fill="#004aad" d="M 391.269531 461.800781 C 401.097656 473.371094 399.652344 490.675781 388.027344 500.457031 C 357.746094 525.953125 319.191406 539.988281 279.46875 539.988281 C 186.742188 539.988281 111.300781 464.9375 111.300781 372.683594 C 111.300781 339.296875 121.164062 307.050781 139.820312 279.441406 C 148.3125 266.882812 165.445312 263.539062 178.078125 271.972656 C 190.714844 280.421875 194.074219 297.472656 185.578125 310.039062 C 173.054688 328.570312 166.4375 350.238281 166.4375 372.683594 C 166.4375 434.695312 217.144531 485.136719 279.46875 485.136719 C 306.167969 485.136719 332.070312 475.707031 352.414062 458.585938 C 364.046875 448.792969 381.4375 450.25 391.269531 461.800781 Z M 484.617188 472.023438 L 439.101562 329.601562 C 435.828125 319.359375 426.265625 312.398438 415.457031 312.398438 L 271.015625 312.398438 L 270.949219 265.640625 L 367.238281 265.640625 C 380.941406 265.640625 392.046875 254.585938 392.046875 240.957031 C 392.046875 227.328125 380.941406 216.273438 367.238281 216.273438 L 270.878906 216.273438 L 270.804688 162.867188 C 287.976562 153.570312 299.769531 135.683594 299.769531 114.863281 C 299.769531 84.566406 275.082031 60.011719 244.632812 60.011719 C 214.179688 60.011719 189.496094 84.566406 189.496094 114.863281 C 189.496094 136.78125 202.503906 155.550781 221.179688 164.335938 L 221.421875 337.113281 C 221.445312 350.726562 232.546875 361.765625 246.234375 361.765625 L 397.308594 361.765625 L 437.328125 486.976562 C 440.683594 497.484375 450.445312 504.191406 460.964844 504.191406 C 463.453125 504.191406 465.988281 503.816406 468.488281 503.023438 C 481.550781 498.890625 488.765625 485.019531 484.617188 472.023438 Z M 484.617188 472.023438 " fill-opacity="1" fill-rule="nonzero"/></g></svg>